<svg id="visual" viewBox="0 0 960 540" width="960" height="540" xmlns="http://www.w3.org/2000/svg" xmlns:xlink="http://www.w3.org/1999/xlink" version="1.1"><path d="M0 120L14.5 122.7C29 125.3 58 130.7 87.2 142.3C116.3 154 145.7 172 174.8 169.3C204 166.7 233 143.3 262 128C291 112.7 320 105.3 349 121.5C378 137.7 407 177.3 436.2 180C465.3 182.7 494.7 148.3 523.8 146.5C553 144.7 582 175.3 611 185.3C640 195.3 669 184.7 698 182C727 179.3 756 184.7 785.2 192.7C814.3 200.7 843.7 211.3 872.8 205C902 198.7 931 175.3 945.5 163.7L960 152L960 0L945.5 0C931 0 902 0 872.8 0C843.7 0 814.3 0 785.2 0C756 0 727 0 698 0C669 0 640 0 611 0C582 0 553 0 523.8 0C494.7 0 465.3 0 436.2 0C407 0 378 0 349 0C320 0 291 0 262 0C233 0 204 0 174.8 0C145.7 0 116.3 0 87.2 0C58 0 29 0 14.5 0L0 0Z" fill="#f4f8ff"></path><path d="M0 260L14.5 264.5C29 269 58 278 87.2 281.7C116.3 285.3 145.7 283.7 174.8 283.7C204 283.7 233 285.3 262 282.7C291 280 320 273 349 277.5C378 282 407 298 436.2 301.5C465.3 305 494.7 296 523.8 303.2C553 310.3 582 333.7 611 331C640 328.3 669 299.7 698 284.5C727 269.3 756 267.7 785.2 273C814.3 278.3 843.7 290.7 872.8 293.3C902 296 931 289 945.5 285.5L960 282L960 150L945.5 161.7C931 173.3 902 196.7 872.8 203C843.7 209.3 814.3 198.7 785.2 190.7C756 182.7 727 177.3 698 180C669 182.7 640 193.3 611 183.3C582 173.3 553 142.7 523.8 144.5C494.7 146.3 465.3 180.7 436.2 178C407 175.3 378 135.7 349 119.5C320 103.3 291 110.7 262 126C233 141.3 204 164.7 174.8 167.3C145.7 170 116.3 152 87.2 140.3C58 128.7 29 123.3 14.5 120.7L0 118Z" fill="#e3edff"></path><path d="M0 395L14.5 400.5C29 406 58 417 87.2 413.5C116.3 410 145.7 392 174.8 383C204 374 233 374 262 371.2C291 368.3 320 362.7 349 376.2C378 389.7 407 422.3 436.2 432.3C465.3 442.3 494.7 429.7 523.8 425.2C553 420.7 582 424.3 611 421.7C640 419 669 410 698 406.3C727 402.7 756 404.3 785.2 398.8C814.3 393.3 843.7 380.7 872.8 378C902 375.3 931 382.7 945.5 386.3L960 390L960 280L945.5 283.5C931 287 902 294 872.8 291.3C843.7 288.7 814.3 276.3 785.2 271C756 265.7 727 267.3 698 282.5C669 297.7 640 326.3 611 329C582 331.7 553 308.3 523.8 301.2C494.7 294 465.3 303 436.2 299.5C407 296 378 280 349 275.5C320 271 291 278 262 280.7C233 283.3 204 281.7 174.8 281.7C145.7 281.7 116.3 283.3 87.2 279.7C58 276 29 267 14.5 262.5L0 258Z" fill="#d4e1ff"></path><path d="M0 455L14.5 460.3C29 465.7 58 476.3 87.2 474.5C116.3 472.7 145.7 458.3 174.8 453C204 447.7 233 451.3 262 451.3C291 451.3 320 447.7 349 455.7C378 463.7 407 483.3 436.2 488.7C465.3 494 494.7 485 523.8 477.8C553 470.7 582 465.3 611 468C640 470.7 669 481.3 698 487.7C727 494 756 496 785.2 489.8C814.3 483.7 843.7 469.3 872.8 464.8C902 460.3 931 465.7 945.5 468.3L960 471L960 388L945.5 384.3C931 380.7 902 373.3 872.8 376C843.7 378.7 814.3 391.3 785.2 396.8C756 402.3 727 400.7 698 404.3C669 408 640 417 611 419.7C582 422.3 553 418.7 523.8 423.2C494.7 427.7 465.3 440.3 436.2 430.3C407 420.3 378 387.7 349 374.2C320 360.7 291 366.3 262 369.2C233 372 204 372 174.8 381C145.7 390 116.3 408 87.2 411.5C58 415 29 404 14.5 398.5L0 393Z" fill="#c6d5ff"></path><path d="M0 541L14.5 541C29 541 58 541 87.2 541C116.3 541 145.7 541 174.8 541C204 541 233 541 262 541C291 541 320 541 349 541C378 541 407 541 436.2 541C465.3 541 494.7 541 523.8 541C553 541 582 541 611 541C640 541 669 541 698 541C727 541 756 541 785.2 541C814.3 541 843.7 541 872.8 541C902 541 931 541 945.5 541L960 541L960 469L945.5 466.3C931 463.7 902 458.3 872.8 462.8C843.7 467.3 814.3 481.7 785.2 487.8C756 494 727 492 698 485.7C669 479.3 640 468.7 611 466C582 463.3 553 468.7 523.8 475.8C494.7 483 465.3 492 436.2 486.7C407 481.3 378 461.7 349 453.7C320 445.7 291 449.3 262 449.3C233 449.3 204 445.7 174.8 451C145.7 456.3 116.3 470.7 87.2 472.5C58 474.3 29 463.7 14.5 458.3L0 453Z" fill="#bbc8ff"></path></svg>