<svg id="visual" viewBox="0 0 960 540" width="960" height="540" xmlns="http://www.w3.org/2000/svg" xmlns:xlink="http://www.w3.org/1999/xlink" version="1.1"><rect x="0" y="0" width="960" height="540" fill="#002233"></rect><path d="M0 391L22.8 392.3C45.7 393.7 91.3 396.3 137 403.2C182.7 410 228.3 421 274 432.7C319.7 444.3 365.3 456.7 411.2 456C457 455.3 503 441.7 548.8 440.2C594.7 438.7 640.3 449.3 686 436C731.7 422.7 777.3 385.3 823 368.5C868.7 351.7 914.3 355.3 937.2 357.2L960 359L960 541L937.2 541C914.3 541 868.7 541 823 541C777.3 541 731.7 541 686 541C640.3 541 594.7 541 548.8 541C503 541 457 541 411.2 541C365.3 541 319.7 541 274 541C228.3 541 182.7 541 137 541C91.3 541 45.7 541 22.8 541L0 541Z" fill="#0066FF" stroke-linecap="round" stroke-linejoin="miter"></path></svg>