<svg id="visual" viewBox="0 0 960 540" width="960" height="540" xmlns="http://www.w3.org/2000/svg" xmlns:xlink="http://www.w3.org/1999/xlink" version="1.1"><rect x="0" y="0" width="960" height="540" fill="#c9d6dc"></rect><path d="M0 391L22.8 400.3C45.7 409.7 91.3 428.3 137 422.7C182.7 417 228.3 387 274 376C319.7 365 365.3 373 411.2 386C457 399 503 417 548.8 411.2C594.7 405.3 640.3 375.7 686 372.5C731.7 369.3 777.3 392.7 823 413.3C868.7 434 914.3 452 937.2 461L960 470L960 541L937.2 541C914.3 541 868.7 541 823 541C777.3 541 731.7 541 686 541C640.3 541 594.7 541 548.8 541C503 541 457 541 411.2 541C365.3 541 319.7 541 274 541C228.3 541 182.7 541 137 541C91.3 541 45.7 541 22.8 541L0 541Z" fill="#0066FF" stroke-linecap="round" stroke-linejoin="miter"></path></svg>