<svg id="visual" viewBox="0 0 960 540" width="960" height="540" xmlns="http://www.w3.org/2000/svg" xmlns:xlink="http://www.w3.org/1999/xlink" version="1.1"><rect x="0" y="0" width="960" height="540" fill="#000000"></rect><defs><linearGradient id="grad1_0" x1="43.8%" y1="0%" x2="100%" y2="100%"><stop offset="14.444444444444446%" stop-color="#000e23" stop-opacity="1"></stop><stop offset="85.55555555555554%" stop-color="#000e23" stop-opacity="1"></stop></linearGradient></defs><defs><linearGradient id="grad1_1" x1="43.8%" y1="0%" x2="100%" y2="100%"><stop offset="14.444444444444446%" stop-color="#000e23" stop-opacity="1"></stop><stop offset="85.55555555555554%" stop-color="#000a20" stop-opacity="1"></stop></linearGradient></defs><defs><linearGradient id="grad1_2" x1="43.8%" y1="0%" x2="100%" y2="100%"><stop offset="14.444444444444446%" stop-color="#00051e" stop-opacity="1"></stop><stop offset="85.55555555555554%" stop-color="#000a20" stop-opacity="1"></stop></linearGradient></defs><defs><linearGradient id="grad1_3" x1="43.8%" y1="0%" x2="100%" y2="100%"><stop offset="14.444444444444446%" stop-color="#00051e" stop-opacity="1"></stop><stop offset="85.55555555555554%" stop-color="#000000" stop-opacity="1"></stop></linearGradient></defs><defs><linearGradient id="grad2_0" x1="0%" y1="0%" x2="56.3%" y2="100%"><stop offset="14.444444444444446%" stop-color="#000e23" stop-opacity="1"></stop><stop offset="85.55555555555554%" stop-color="#000e23" stop-opacity="1"></stop></linearGradient></defs><defs><linearGradient id="grad2_1" x1="0%" y1="0%" x2="56.3%" y2="100%"><stop offset="14.444444444444446%" stop-color="#000a20" stop-opacity="1"></stop><stop offset="85.55555555555554%" stop-color="#000e23" stop-opacity="1"></stop></linearGradient></defs><defs><linearGradient id="grad2_2" x1="0%" y1="0%" x2="56.3%" y2="100%"><stop offset="14.444444444444446%" stop-color="#000a20" stop-opacity="1"></stop><stop offset="85.55555555555554%" stop-color="#00051e" stop-opacity="1"></stop></linearGradient></defs><defs><linearGradient id="grad2_3" x1="0%" y1="0%" x2="56.3%" y2="100%"><stop offset="14.444444444444446%" stop-color="#000000" stop-opacity="1"></stop><stop offset="85.55555555555554%" stop-color="#00051e" stop-opacity="1"></stop></linearGradient></defs><g transform="translate(960, 0)"><path d="M0 486C-53.2 485.1 -106.4 484.2 -150.2 462.2C-193.9 440.2 -228.2 397.2 -261 359.2C-293.8 321.3 -325.1 288.4 -345.5 251C-365.8 213.5 -375 171.5 -396.6 128.9C-418.2 86.3 -452.1 43.1 -486 0L0 0Z" fill="#00021d"></path><path d="M0 364.5C-39.9 363.8 -79.8 363.2 -112.6 346.7C-145.4 330.2 -171.1 297.9 -195.7 269.4C-220.3 240.9 -243.9 216.3 -259.1 188.2C-274.3 160.2 -281.3 128.6 -297.4 96.6C-313.6 64.7 -339.1 32.3 -364.5 0L0 0Z" fill="#00071f"></path><path d="M0 243C-26.6 242.6 -53.2 242.1 -75.1 231.1C-97 220.1 -114.1 198.6 -130.5 179.6C-146.9 160.6 -162.6 144.2 -172.7 125.5C-182.9 106.8 -187.5 85.7 -198.3 64.4C-209.1 43.1 -226 21.6 -243 0L0 0Z" fill="#000c22"></path><path d="M0 121.5C-13.3 121.3 -26.6 121.1 -37.5 115.6C-48.5 110.1 -57 99.3 -65.2 89.8C-73.4 80.3 -81.3 72.1 -86.4 62.7C-91.4 53.4 -93.8 42.9 -99.1 32.2C-104.5 21.6 -113 10.8 -121.5 0L0 0Z" fill="#000e23"></path></g><g transform="translate(0, 540)"><path d="M0 -486C48.4 -476.7 96.8 -467.5 148 -455.6C199.2 -443.7 253.2 -429.1 285.7 -393.2C318.1 -357.3 329 -299.9 352.7 -256.3C376.5 -212.6 413.1 -182.6 437.5 -142.1C461.8 -101.7 473.9 -50.9 486 0L0 0Z" fill="#00021d"></path><path d="M0 -364.5C36.3 -357.5 72.6 -350.6 111 -341.7C149.4 -332.7 189.9 -321.8 214.2 -294.9C238.6 -267.9 246.7 -225 264.5 -192.2C282.4 -159.5 309.8 -136.9 328.1 -106.6C346.4 -76.3 355.4 -38.1 364.5 0L0 0Z" fill="#00071f"></path><path d="M0 -243C24.2 -238.4 48.4 -233.7 74 -227.8C99.6 -221.8 126.6 -214.6 142.8 -196.6C159.1 -178.6 164.5 -150 176.4 -128.1C188.2 -106.3 206.6 -91.3 218.7 -71.1C230.9 -50.9 237 -25.4 243 0L0 0Z" fill="#000c22"></path><path d="M0 -121.5C12.1 -119.2 24.2 -116.9 37 -113.9C49.8 -110.9 63.3 -107.3 71.4 -98.3C79.5 -89.3 82.2 -75 88.2 -64.1C94.1 -53.2 103.3 -45.6 109.4 -35.5C115.5 -25.4 118.5 -12.7 121.5 0L0 0Z" fill="#000e23"></path></g></svg>